<?xml version="1.0" standalone="no"?><!DOCTYPE svg PUBLIC "-//W3C//DTD SVG 1.1//EN" "http://www.w3.org/Graphics/SVG/1.1/DTD/svg11.dtd"><svg t="1661431215808" class="icon" viewBox="0 0 1024 1024" version="1.1" xmlns="http://www.w3.org/2000/svg" p-id="2797" xmlns:xlink="http://www.w3.org/1999/xlink" width="200" height="200"><defs><style type="text/css">@font-face { font-family: element-icons; src: url("chrome-extension://moombeodfomdpjnpocobemoiaemednkg/fonts/element-icons.woff") format("woff"), url("chrome-extension://moombeodfomdpjnpocobemoiaemednkg/fonts/element-icons.ttf ") format("truetype"); }
@font-face { font-family: feedback-iconfont; src: url("//at.alicdn.com/t/font_1031158_u69w8yhxdu.woff2?t=1630033759944") format("woff2"), url("//at.alicdn.com/t/font_1031158_u69w8yhxdu.woff?t=1630033759944") format("woff"), url("//at.alicdn.com/t/font_1031158_u69w8yhxdu.ttf?t=1630033759944") format("truetype"); }
</style></defs><path d="M512 16a316.864 316.864 0 0 1 313.856 273.28 227.2 227.2 0 0 1 0 445.44A316.928 316.928 0 0 1 512 1008a48 48 0 1 1 0-96 220.8 220.8 0 0 0 220.48-208.64l0.32-12.16V332.8a220.8 220.8 0 0 0-441.28-12.16l-0.32 12.16v358.4a48 48 0 0 1-41.472 47.552l-6.528 0.448a227.2 227.2 0 0 1-45.056-449.92A316.928 316.928 0 0 1 512 16z" fill="#333333" p-id="2798"></path></svg>